<?xml version="1.0" encoding="UTF-8" standalone="no"?>
<svg
   id="Layer_1"
   data-name="Layer 1"
   viewBox="0 0 36.000001 36"
   version="1.1"
   sodipodi:docname="shield_gray.svg"
   width="36"
   height="36"
   inkscape:version="1.3.2 (091e20e, 2023-11-25)"
   xmlns:inkscape="http://www.inkscape.org/namespaces/inkscape"
   xmlns:sodipodi="http://sodipodi.sourceforge.net/DTD/sodipodi-0.dtd"
   xmlns="http://www.w3.org/2000/svg"
   xmlns:svg="http://www.w3.org/2000/svg"
   xmlns:rdf="http://www.w3.org/1999/02/22-rdf-syntax-ns#"
   xmlns:cc="http://creativecommons.org/ns#"
   xmlns:dc="http://purl.org/dc/elements/1.1/">
  <sodipodi:namedview
     id="namedview54"
     pagecolor="#ffffff"
     bordercolor="#000000"
     borderopacity="0.25"
     inkscape:showpageshadow="2"
     inkscape:pageopacity="0.0"
     inkscape:pagecheckerboard="0"
     inkscape:deskcolor="#d1d1d1"
     inkscape:zoom="6.5555556"
     inkscape:cx="14.949153"
     inkscape:cy="17.923729"
     inkscape:window-width="1712"
     inkscape:window-height="1040"
     inkscape:window-x="0"
     inkscape:window-y="979"
     inkscape:window-maximized="1"
     inkscape:current-layer="Layer_1" />
  <defs
     id="defs1">
    <style
       id="style1">.cls-1{fill:#a49e99;}.cls-2{fill:#fff;}</style>
  </defs>
  <title
     id="title1">Rice_Shield_Warm_Gray_5</title>
  <path
     class="cls-1"
     d="m 32.905012,16 a 21.23,21.23 0 0 1 -13.25,19.68 4.48,4.48 0 0 1 -3.3,0 A 21.24,21.24 0 0 1 3.0950122,16 V 3.2 a 1.23,1.23 0 0 1 0.89,-1.19 48.94,48.94 0 0 1 11.2999998,-1.94 c 0.9,0 1.81,-0.07 2.72,-0.07 a 49.55,49.55 0 0 1 14,2 1.22,1.22 0 0 1 0.88,1.19 z"
     id="path1" />
  <path
     class="cls-2"
     d="m 17.715012,24.91 a 0.49,0.49 0 0 0 -0.49,0.49 0.54,0.54 0 0 0 0.05,0.22 v 0 l 0.39,0.82 a 0.07,0.07 0 0 0 0.11,0 l 0.39,-0.82 a 0.54,0.54 0 0 0 0.05,-0.22 0.49,0.49 0 0 0 -0.5,-0.49 z"
     id="path2" />
  <path
     class="cls-2"
     d="m 15.705012,26.69 a 0.47,0.47 0 0 0 -0.24,-0.42 h -0.05 a 0.09,0.09 0 0 0 -0.14,0.07 3.4,3.4 0 0 0 0,0.45 3.75,3.75 0 0 0 0.57,2 3,3 0 0 0 0.34,0.46 0.08,0.08 0 0 0 0.08,0 0.07,0.07 0 0 0 0,-0.1 4.86,4.86 0 0 1 -0.56,-2.32 z"
     id="path3" />
  <polygon
     class="cls-2"
     points=""
     id="polygon3" />
  <path
     class="cls-2"
     d="m 18.065012,31.58 c 0.05,-0.08 0.1,-0.16 0.14,-0.24 a 0.2,0.2 0 0 0 -0.07,-0.27 l -0.11,-0.07 a 0.07,0.07 0 0 0 -0.09,0 3.92,3.92 0 0 1 -0.34,0.64 0.6,0.6 0 0 1 -0.53,0.29 h -0.17 a 0.27,0.27 0 0 0 -0.24,0.16 v 0.07 a 0.05,0.05 0 0 0 0.05,0.08 h 0.1 a 0.05,0.05 0 0 0 0.06,0 v 0 a 0.21,0.21 0 0 1 0.27,-0.12 v 0 a 0.06,0.06 0 0 0 0.06,0.08 h 0.35 a 0.07,0.07 0 0 0 0.06,0 v 0 V 32.11 32 a 0.54,0.54 0 0 1 0.22,-0.25 0.58,0.58 0 0 0 0.24,-0.17 z"
     id="path4" />
  <polygon
     class="cls-2"
     points="15.17,32.28 15.18,32.28 "
     id="polygon4"
     transform="translate(3.0950122)" />
  <path
     class="cls-2"
     d="m 19.275012,30.93 a 0.06,0.06 0 0 0 -0.09,0 4.89,4.89 0 0 1 -0.37,0.72 0.6,0.6 0 0 1 -0.53,0.29 h -0.18 a 0.26,0.26 0 0 0 -0.23,0.16 v 0 0.07 a 0.06,0.06 0 0 0 0.06,0.08 h 0.1 a 0.05,0.05 0 0 0 0.06,0 v 0 a 0.22,0.22 0 0 1 0.28,-0.12 v 0 a 0.05,0.05 0 0 0 0.05,0.08 h 0.41 a 0.25,0.25 0 0 0 0.09,0 h 0.06 a 0.16,0.16 0 0 1 0.15,0 0.24,0.24 0 0 0 0.11,0.06 v 0 a 0.25,0.25 0 0 0 0.12,0 h 0.11 v -0.15 a 0.16,0.16 0 0 0 -0.16,-0.13 h -0.13 a 0.06,0.06 0 0 1 0,-0.09 l 0.07,-0.11 c 0.08,-0.11 0.16,-0.23 0.23,-0.35 a 1.09,1.09 0 0 0 0.08,-0.15 0.19,0.19 0 0 0 -0.07,-0.26 z"
     id="path5" />
  <path
     class="cls-2"
     d="m 19.545012,23.94 a 1,1 0 0 1 0.19,0.26 0.41,0.41 0 0 0 0.26,0.2 1.4,1.4 0 0 1 0.53,0.27 v 0 c 0,0 0,0 0,0 v 0 a 1.62,1.62 0 0 0 -0.28,-0.9 0.25,0.25 0 0 0 -0.14,-0.08 h -0.05 a 0.87,0.87 0 0 0 -0.58,0.24 c 0,0 0.07,0 0.07,0.01 z"
     id="path6" />
  <path
     class="cls-2"
     d="m 19.915012,24.71 a 0.89,0.89 0 0 1 -0.12,0.38 0.37,0.37 0 0 0 0,0.29 1.12,1.12 0 0 1 0.09,0.56 v 0 0 0 a 1.53,1.53 0 0 0 0.58,-0.63 0.44,0.44 0 0 0 0,-0.25 0.42,0.42 0 0 0 -0.13,-0.21 1,1 0 0 0 -0.45,-0.21 z"
     id="path7" />
  <path
     class="cls-2"
     d="m 18.445012,23.83 v 0 a 0.91,0.91 0 0 1 0.48,-0.13 h 0.19 0.08 a 0.32,0.32 0 0 0 0.21,-0.08 1.35,1.35 0 0 1 0.51,-0.25 c 0,0 0,0 0,0 0,0 0,0 0,0 a 1.85,1.85 0 0 0 -0.45,-0.21 h -0.18 -0.18 a 0.82,0.82 0 0 0 -0.42,0.22 1.31,1.31 0 0 0 -0.3,0.44 c 0,0 0,0 0,0 0,0 0.04,0.01 0.06,0.01 z"
     id="path8" />
  <path
     class="cls-2"
     d="m 17.245012,23.53 a 2.13,2.13 0 0 1 0.18,0.52 2.74,2.74 0 0 1 0,0.58 c 0,0 0,0 0,0 v 0 a 0.64,0.64 0 0 1 0.2,0 0.66,0.66 0 0 1 0.21,0 v 0 c 0,0 0,0 0,0 a 2.74,2.74 0 0 1 0,-0.58 2.13,2.13 0 0 1 0.18,-0.52 2.39,2.39 0 0 1 0.13,-0.21 v 0 a 1.43,1.43 0 0 0 -0.45,0.36 0.13,0.13 0 0 1 -0.12,0.05 0.13,0.13 0 0 1 -0.11,-0.05 1.55,1.55 0 0 0 -0.45,-0.36 c 0,0 0,0 0,0 v 0 c 0,0 0,0 0,0 z"
     id="path9" />
  <path
     class="cls-2"
     d="m 16.025012,23.66 a 0.32,0.32 0 0 0 0.21,0.08 h 0.08 0.19 a 0.85,0.85 0 0 1 0.47,0.13 v 0 c 0,0 0,0 0,0 0,0 0,0 0,0 a 1.31,1.31 0 0 0 -0.3,-0.44 0.82,0.82 0 0 0 -0.42,-0.22 h -0.18 -0.18 a 1.85,1.85 0 0 0 -0.45,0.21 c 0,0 0,0 0,0 0,0 0,0 0,0 a 1.35,1.35 0 0 1 0.58,0.24 z"
     id="path10" />
  <path
     class="cls-2"
     d="m 15.665012,24.23 a 1,1 0 0 1 0.19,-0.26 c 0,0 0,0 0,0 a 0.88,0.88 0 0 0 -0.59,-0.24 v 0 a 0.22,0.22 0 0 0 -0.14,0.08 1.62,1.62 0 0 0 -0.28,0.9 v 0 0 a 1.52,1.52 0 0 1 0.54,-0.27 0.41,0.41 0 0 0 0.28,-0.21 z"
     id="path11" />
  <path
     class="cls-2"
     d="m 15.545012,26.02 v 0 0 a 1.23,1.23 0 0 1 0.08,-0.56 0.33,0.33 0 0 0 0,-0.29 0.89,0.89 0 0 1 -0.12,-0.38 v 0 a 1,1 0 0 0 -0.45,0.21 0.36,0.36 0 0 0 -0.13,0.21 0.33,0.33 0 0 0 0,0.24 1.65,1.65 0 0 0 0.59,0.64 z"
     id="path12" />
  <path
     class="cls-2"
     d="m 19.605012,30.05 v 0 a 4.83,4.83 0 0 1 -0.87,-1.46 4.91,4.91 0 0 1 -0.32,-1.76 2.81,2.81 0 0 1 0,-0.29 v 0 a 0.09,0.09 0 0 1 -0.08,-0.09 0.21,0.21 0 0 1 0.22,-0.21 h 0.51 0.23 a 0.28,0.28 0 0 0 0.24,-0.25 1,1 0 0 0 -0.07,-0.48 1,1 0 0 1 -0.46,0.12 1,1 0 0 1 -0.41,-0.09 v 0 c 0,0 0,0 0,0 a 0.66,0.66 0 0 1 -0.06,0.2 l -0.46,0.95 a 0.24,0.24 0 0 1 -0.24,0.15 0.24,0.24 0 0 1 -0.23,-0.15 l -0.46,-0.95 a 0.66,0.66 0 0 1 -0.06,-0.2 c 0,0 0,0 0,0 v 0 a 1,1 0 0 1 -0.41,0.09 1,1 0 0 1 -0.46,-0.12 1,1 0 0 0 -0.07,0.48 0.28,0.28 0 0 0 0.24,0.25 h 0.23 0.51 a 0.21,0.21 0 0 1 0.22,0.21 0.09,0.09 0 0 1 -0.08,0.09 h -0.65 a 1.53,1.53 0 0 1 -0.3,0 v 0 a 0.1,0.1 0 0 0 -0.1,0.09 c 0,0.08 0,0.16 0,0.25 a 4.63,4.63 0 0 0 0.71,2.45 5.22,5.22 0 0 0 0.74,0.89 5.16,5.16 0 0 0 0.93,0.68 v 0 0 a 0.42,0.42 0 0 1 0,-0.1 0.82,0.82 0 0 0 0,-0.31 0.54,0.54 0 0 0 -0.15,-0.29 4.71,4.71 0 0 1 -0.57,-0.76 0.08,0.08 0 0 1 0,-0.07 0.2,0.2 0 0 1 0.11,0 0.21,0.21 0 0 1 0.18,0.09 4.12,4.12 0 0 0 0.76,0.9 4.24,4.24 0 0 0 0.39,0.33 l 0.36,0.23 v 0 0 l 0.06,-0.17 a 0.61,0.61 0 0 0 0,-0.3 0.57,0.57 0 0 0 -0.13,-0.27 z"
     id="path13" />
  <path
     class="cls-2"
     d="m 20.105012,30.55 v 0 c 0,0 0,0 0,0 a 5.46,5.46 0 0 1 -0.26,0.67 v 0 c 0,0 0,0 0,0 a 7.32,7.32 0 0 0 0.94,0.37 v 0 a 0.09,0.09 0 0 0 0.06,0 l 0.13,-0.23 0.06,-0.09 a 0.11,0.11 0 0 0 0,-0.15 4.72,4.72 0 0 1 -0.93,-0.57 z"
     id="path14" />
  <path
     class="cls-2"
     d="m 21.835012,30.6 a 3.56,3.56 0 0 1 -0.65,-0.32 4.19,4.19 0 0 1 -0.93,-0.8 4.12,4.12 0 0 1 -0.77,-1.35 0.13,0.13 0 0 1 0,-0.06 c 0,0 0,0 0.05,0 h 0.06 a 0.21,0.21 0 0 1 0.21,0.14 3.93,3.93 0 0 0 0.67,1.13 4,4 0 0 0 0.86,0.73 3.69,3.69 0 0 0 0.75,0.36 v 0 -0.2 0 a 0.77,0.77 0 0 0 -0.38,-0.53 3.17,3.17 0 0 1 -0.82,-0.68 3.07,3.07 0 0 1 -0.68,-1.33 0.08,0.08 0 0 1 0,-0.07 0.05,0.05 0 0 1 0.05,0 h 0.05 a 0.23,0.23 0 0 1 0.21,0.16 3.57,3.57 0 0 0 0.23,0.57 2.7,2.7 0 0 0 0.35,0.51 2.64,2.64 0 0 0 0.78,0.63 v 0 0 c 0,0 0,0 0,0 a 13,13 0 0 0 -0.33,-1.82 3.45,3.45 0 0 0 -0.46,-0.87 3.08,3.08 0 0 0 -0.68,-0.67 h -0.09 a 0.2,0.2 0 0 0 -0.11,0 1.91,1.91 0 0 1 -0.54,0.3 1.88,1.88 0 0 1 -0.62,0.11 h -0.23 a 0.09,0.09 0 0 0 -0.09,0.09 1.55,1.55 0 0 0 0,0.22 4.47,4.47 0 0 0 0.3,1.62 4.58,4.58 0 0 0 3.28,2.85 v 0 a 0.83,0.83 0 0 0 0,-0.15 0.72,0.72 0 0 0 -0.47,-0.57 z"
     id="path15" />
  <path
     class="cls-2"
     d="m 18.945012,30.89 0.05,-0.12 c 0,0 0,0 0,0 l -0.18,-0.14 c 0,0 0,0 -0.05,0 -0.05,0 0,0.09 -0.05,0.14 a 0,0 0 0 0 0,0.05 l 0.19,0.11 c 0,0 0.03,-0.03 0.04,-0.04 z"
     id="path16" />
  <path
     class="cls-2"
     d="m 18.935012,23.99 a 0.67,0.67 0 1 0 0,1.34 0.67,0.67 0 0 0 0,-1.34 z m 0,1.13 a 0.46,0.46 0 0 1 -0.44,-0.45 0.44,0.44 0 0 1 0.3,-0.44 c 0,0 0.06,0 0,0.05 a 0.37,0.37 0 0 0 -0.09,0.25 0.36,0.36 0 0 0 0.34,0.33 0.33,0.33 0 0 0 0.24,-0.08 0,0 0 0 0 0.06,0 0.47,0.47 0 0 1 -0.43,0.34 z"
     id="path17" />
  <path
     class="cls-2"
     d="m 16.545012,23.99 a 0.67,0.67 0 1 0 0.67,0.67 0.67,0.67 0 0 0 -0.67,-0.67 z m 0,1.13 a 0.48,0.48 0 0 1 -0.45,-0.45 0.47,0.47 0 0 1 0.31,-0.44 c 0,0 0.06,0 0,0.05 a 0.37,0.37 0 0 0 -0.09,0.25 0.36,0.36 0 0 0 0.58,0.25 c 0,0 0.07,0 0.05,0 a 0.46,0.46 0 0 1 -0.4,0.34 z"
     id="path18" />
  <path
     class="cls-2"
     d="m 8.4650122,4.83 a 0.49,0.49 0 0 0 -0.49,0.49 0.42,0.42 0 0 0 0.05,0.22 v 0 l 0.38,0.82 a 0.07,0.07 0 0 0 0.11,0 l 0.39,-0.82 a 0.54,0.54 0 0 0 0.05,-0.22 0.49,0.49 0 0 0 -0.49,-0.49 z"
     id="path19" />
  <path
     class="cls-2"
     d="m 6.4450122,6.58 a 0.46,0.46 0 0 0 -0.23,-0.42 h -0.05 a 0.1,0.1 0 0 0 -0.15,0.07 c 0,0.15 0,0.3 0,0.45 a 3.75,3.75 0 0 0 0.57,2 3.83,3.83 0 0 0 0.33,0.46 0.08,0.08 0 0 0 0.08,0 0.07,0.07 0 0 0 0,-0.1 5,5 0 0 1 -0.56,-2.27 z"
     id="path20" />
  <polygon
     class="cls-2"
     points=""
     id="polygon20" />
  <path
     class="cls-2"
     d="m 8.8050122,11.47 0.15,-0.24 a 0.2,0.2 0 0 0 -0.08,-0.27 l -0.11,-0.07 a 0.06,0.06 0 0 0 -0.08,0 4.89,4.89 0 0 1 -0.34,0.64 0.61,0.61 0 0 1 -0.53,0.29 h -0.18 a 0.26,0.26 0 0 0 -0.23,0.16 v 0.08 a 0.05,0.05 0 0 0 0.05,0.07 h 0.09 a 0.06,0.06 0 0 0 0.06,0 v 0 a 0.22,0.22 0 0 1 0.28,-0.12 v 0 a 0.05,0.05 0 0 0 0.05,0.08 h 0.31 a 0.06,0.06 0 0 0 0.06,0 v 0 V 12 11.89 a 0.45,0.45 0 0 1 0.22,-0.25 0.64,0.64 0 0 0 0.28,-0.17 z"
     id="path21" />
  <polygon
     class="cls-2"
     points=""
     id="polygon21" />
  <path
     class="cls-2"
     d="m 10.015012,10.83 a 0.07,0.07 0 0 0 -0.09,0 4.08,4.08 0 0 1 -0.37,0.72 0.6,0.6 0 0 1 -0.53,0.29 h -0.17 a 0.27,0.27 0 0 0 -0.24,0.16 v 0 0.07 a 0.05,0.05 0 0 0 0,0.08 h 0.1 a 0.05,0.05 0 0 0 0.06,0 v 0 a 0.21,0.21 0 0 1 0.27,-0.12 v 0 a 0.06,0.06 0 0 0 0.06,0.08 h 0.44 0.1 0.06 a 0.12,0.12 0 0 1 0.14,0 0.24,0.24 0 0 0 0.11,0.06 v 0 a 0.25,0.25 0 0 0 0.1199998,0 h 0.11 v -0.15 a 0.18,0.18 0 0 0 -0.17,-0.13 H 9.8850122 a 0.06,0.06 0 0 1 -0.05,-0.09 l 0.08,-0.11 c 0.08,-0.11 0.1599998,-0.23 0.2299998,-0.35 l 0.08,-0.15 a 0.19,0.19 0 0 0 -0.07,-0.26 z"
     id="path22" />
  <path
     class="cls-2"
     d="m 10.315012,3.83 a 1,1 0 0 1 0.19,0.26 0.4,0.4 0 0 0 0.27,0.2 1.56,1.56 0 0 1 0.53,0.27 v 0 0 a 1.62,1.62 0 0 0 -0.28,-0.9 0.22,0.22 0 0 0 -0.14,-0.08 v 0 a 0.88,0.88 0 0 0 -0.59,0.24 z"
     id="path23" />
  <path
     class="cls-2"
     d="m 10.655012,4.6 a 0.89,0.89 0 0 1 -0.12,0.38 0.33,0.33 0 0 0 0,0.29 1.4,1.4 0 0 1 0.01,0.56 v 0 a 1.63,1.63 0 0 0 0.59,-0.63 0.37,0.37 0 0 0 0,-0.25 0.36,0.36 0 0 0 -0.13,-0.21 1.06,1.06 0 0 0 -0.44,-0.21 z"
     id="path24" />
  <path
     class="cls-2"
     d="m 9.1850122,3.73 v 0 a 0.85,0.85 0 0 1 0.47,-0.13 h 0.2 0.07 a 0.35,0.35 0 0 0 0.2199998,-0.08 1.24,1.24 0 0 1 0.5,-0.25 c 0,0 0,0 0,0 0,0 0,0 0,0 a 1.57,1.57 0 0 0 -0.45,-0.22 h -0.18 -0.1799998 a 0.86,0.86 0 0 0 -0.42,0.22 1.17,1.17 0 0 0 -0.29,0.44 c 0,0 0,0 0,0 z"
     id="path25" />
  <path
     class="cls-2"
     d="m 7.9850122,3.42 a 2.13,2.13 0 0 1 0.18,0.52 2.21,2.21 0 0 1 0,0.58 c 0,0 0,0 0,0 v 0 a 0.75,0.75 0 0 1 0.42,0 v 0 c 0,0 0,0 0,0 a 2.2,2.2 0 0 1 0.05,-0.58 1.77,1.77 0 0 1 0.17,-0.52 c 0,-0.07 0.09,-0.14 0.14,-0.21 0.05,-0.07 0,0 0,0 v 0 0 a 1.55,1.55 0 0 0 -0.45,0.36 0.14,0.14 0 0 1 -0.11,0.06 0.14,0.14 0 0 1 -0.12,-0.06 1.39,1.39 0 0 0 -0.44,-0.36 v 0 c 0,0 0,0 0,0 0,0 0,0 0,0 a 2.39,2.39 0 0 1 0.16,0.21 z"
     id="path26" />
  <path
     class="cls-2"
     d="m 6.7650122,3.55 a 0.35,0.35 0 0 0 0.22,0.08 h 0.07 0.2 a 0.9,0.9 0 0 1 0.47,0.13 v 0 0 c 0,0 0,0 0,0 a 1.08,1.08 0 0 0 -0.3,-0.44 0.78,0.78 0 0 0 -0.42,-0.22 h -0.17 -0.19 a 1.57,1.57 0 0 0 -0.45,0.22 c 0,0 0,0 0,0 a 1.38,1.38 0 0 1 0.57,0.23 z"
     id="path27" />
  <path
     class="cls-2"
     d="m 6.4050122,4.12 a 1.24,1.24 0 0 1 0.19,-0.26 v 0 0 a 0.87,0.87 0 0 0 -0.58,-0.24 h -0.05 a 0.22,0.22 0 0 0 -0.13,0.08 1.55,1.55 0 0 0 -0.28,0.9 v 0 c 0,0 0,0 0,0 v 0 a 1.4,1.4 0 0 1 0.53,-0.27 0.41,0.41 0 0 0 0.32,-0.21 z"
     id="path28" />
  <path
     class="cls-2"
     d="m 6.3250122,5.91 v 0 a 1.4,1.4 0 0 1 0.09,-0.56 0.37,0.37 0 0 0 0,-0.29 1.29,1.29 0 0 1 -0.12,-0.38 c 0,0 0,0 0,0 v 0 a 1,1 0 0 0 -0.45,0.21 0.42,0.42 0 0 0 -0.13,0.21 0.4,0.4 0 0 0 0,0.24 1.52,1.52 0 0 0 0.59,0.64 z"
     id="path29" />
  <path
     class="cls-2"
     d="m 10.345012,9.94 v 0 a 5,5 0 0 1 -0.8699998,-1.46 4.9,4.9 0 0 1 -0.31,-1.73 v -0.31 0 a 0.09,0.09 0 0 1 -0.09,-0.09 0.21,0.21 0 0 1 0.22,-0.21 h 0.51 0.2399998 a 0.28,0.28 0 0 0 0.23,-0.25 1,1 0 0 0 -0.07,-0.47 v 0 c 0,0 0,0 0,0 a 0.93,0.93 0 0 1 -0.4599998,0.12 0.9,0.9 0 0 1 -0.4,-0.09 v 0 c 0,0 0,0 0,0 a 0.66,0.66 0 0 1 -0.06,0.2 l -0.45,0.95 a 0.26,0.26 0 0 1 -0.24,0.15 0.24,0.24 0 0 1 -0.24,-0.15 l -0.45,-0.95 a 0.68,0.68 0 0 1 -0.07,-0.2 v 0 a 0.94,0.94 0 0 1 -0.86,0 v 0 a 1,1 0 0 0 -0.08,0.47 0.28,0.28 0 0 0 0.24,0.25 h 0.23 0.51 a 0.21,0.21 0 0 1 0.22,0.21 0.08,0.08 0 0 1 -0.08,0.09 h -0.65 a 1.36,1.36 0 0 1 -0.29,0 v 0 a 0.09,0.09 0 0 0 -0.09,0.09 2,2 0 0 0 0,0.25 4.51,4.51 0 0 0 0.71,2.45 5.16,5.16 0 0 0 0.73,0.89 5.23,5.23 0 0 0 0.94,0.68 v 0 0 a 1,1 0 0 0 0,-0.1 0.55,0.55 0 0 0 0,-0.31 0.61,0.61 0 0 0 -0.14,-0.29 4.77,4.77 0 0 1 -0.58,-0.76 0.15,0.15 0 0 1 0,-0.07 0.1,0.1 0 0 1 0,-0.05 0.23,0.23 0 0 1 0.11,0 0.2,0.2 0 0 1 0.18,0.1 4.32,4.32 0 0 0 0.76,0.89 4.12,4.12 0 0 0 0.3999998,0.33 3.17,3.17 0 0 0 0.36,0.23 c 0,0 0,0 0,0 v 0 l 0.06,-0.17 a 0.51,0.51 0 0 0 0,-0.3 0.57,0.57 0 0 0 -0.13,-0.27 z"
     id="path30" />
  <path
     class="cls-2"
     d="m 10.845012,10.44 v 0 c -0.08,0.23 -0.17,0.45 -0.27,0.67 v 0 0 a 8.26,8.26 0 0 0 0.94,0.36 v 0 a 0.07,0.07 0 0 0 0.06,0 c 0.05,-0.07 0.09,-0.15 0.14,-0.23 l 0.05,-0.09 a 0.11,0.11 0 0 0 0,-0.15 5.18,5.18 0 0 1 -0.92,-0.56 z"
     id="path31" />
  <path
     class="cls-2"
     d="m 12.545012,10.49 a 3,3 0 0 1 -0.65,-0.32 4.24,4.24 0 0 1 -0.94,-0.8 3.92,3.92 0 0 1 -0.76,-1.35 0.06,0.06 0 0 1 0,-0.06 0.07,0.07 0 0 1 0.05,0 h 0.07 a 0.23,0.23 0 0 1 0.21,0.14 3.68,3.68 0 0 0 0.66,1.13 3.84,3.84 0 0 0 0.87,0.73 3.24,3.24 0 0 0 0.75,0.36 v 0 c 0,0 0,0 0,0 v -0.2 0 a 0.75,0.75 0 0 0 -0.37,-0.53 3.14,3.14 0 0 1 -1.51,-2 0.09,0.09 0 0 1 0,-0.07 0.09,0.09 0 0 1 0.05,0 v 0 a 0.22,0.22 0 0 1 0.21,0.16 2.87,2.87 0 0 0 0.24,0.57 2,2 0 0 0 0.35,0.51 2.73,2.73 0 0 0 0.77,0.63 h 0.05 a 12.72,12.72 0 0 0 -0.43,-1.65 3.16,3.16 0 0 0 -0.46,-0.87 2.7,2.7 0 0 0 -0.68,-0.67 h -0.09 a 0.17,0.17 0 0 0 -0.1,0 2,2 0 0 1 -0.55,0.3 1.88,1.88 0 0 1 -0.6199998,0.11 h -0.12 a 0.1,0.1 0 0 0 -0.1,0.09 v 0.22 a 4.5,4.5 0 0 0 1.1099998,3 4.54,4.54 0 0 0 1.11,0.94 4.77,4.77 0 0 0 1.35,0.54 v 0 c 0,0 0,0 0,0 v -0.15 a 0.76,0.76 0 0 0 -0.47,-0.76 z"
     id="path32" />
  <path
     class="cls-2"
     d="m 9.6950122,10.83 c 0,0 0,-0.08 0,-0.12 l -0.15,-0.24 c 0,0 -0.05,0 -0.06,0 a 1.21,1.21 0 0 1 0,0.14 c 0,0 0,0 0,0.05 l 0.19,0.11 z"
     id="path33" />
  <path
     class="cls-2"
     d="M 9.6750122,3.88 A 0.67,0.67 0 1 0 10.345012,4.55 0.67,0.67 0 0 0 9.6750122,3.88 Z m 0,1.13 a 0.46,0.46 0 0 1 -0.15,-0.89 c 0,0 0.07,0 0,0.05 a 0.36,0.36 0 0 0 -0.08,0.25 0.34,0.34 0 0 0 0.33,0.33 0.33,0.33 0 0 0 0.2399998,-0.08 0,0 0 0 0 0.06,0 0.47,0.47 0 0 1 -0.4099998,0.34 z"
     id="path34" />
  <path
     class="cls-2"
     d="m 7.2550122,3.88 a 0.67,0.67 0 1 0 0.67,0.67 0.67,0.67 0 0 0 -0.67,-0.67 z m 0,1.13 a 0.46,0.46 0 0 1 -0.45,-0.45 0.44,0.44 0 0 1 0.3,-0.44 c 0,0 0.06,0 0,0.05 a 0.37,0.37 0 0 0 -0.09,0.25 0.36,0.36 0 0 0 0.34,0.33 0.33,0.33 0 0 0 0.24,-0.08 0,0 0 0 0 0.06,0 0.47,0.47 0 0 1 -0.41,0.34 z"
     id="path35" />
  <path
     class="cls-2"
     d="m 25.865012,4.83 a 0.49,0.49 0 0 0 -0.49,0.49 0.42,0.42 0 0 0 0.05,0.22 v 0 l 0.39,0.82 a 0.06,0.06 0 0 0 0.1,0 l 0.39,-0.82 a 0.54,0.54 0 0 0 0,-0.22 0.49,0.49 0 0 0 -0.44,-0.49 z"
     id="path36" />
  <path
     class="cls-2"
     d="m 23.855012,6.58 a 0.49,0.49 0 0 0 -0.24,-0.42 h -0.05 a 0.09,0.09 0 0 0 -0.14,0.07 3.4,3.4 0 0 0 0,0.45 3.75,3.75 0 0 0 0.57,2 3.83,3.83 0 0 0 0.33,0.46 0.08,0.08 0 0 0 0.08,0 0.07,0.07 0 0 0 0,-0.1 4.87,4.87 0 0 1 -0.57,-2.27 1,1 0 0 1 0.02,-0.19 z"
     id="path37" />
  <polygon
     class="cls-2"
     points=""
     id="polygon37" />
  <path
     class="cls-2"
     d="m 26.205012,11.47 0.15,-0.24 a 0.2,0.2 0 0 0 -0.08,-0.27 l -0.11,-0.07 a 0.06,0.06 0 0 0 -0.08,0 4.89,4.89 0 0 1 -0.34,0.64 0.6,0.6 0 0 1 -0.53,0.29 h -0.18 a 0.26,0.26 0 0 0 -0.23,0.16 v 0.08 a 0.06,0.06 0 0 0 0.06,0.07 h 0.1 a 0.05,0.05 0 0 0 0.06,0 v 0 a 0.22,0.22 0 0 1 0.28,-0.12 v 0 a 0.05,0.05 0 0 0 0.05,0.08 h 0.31 a 0.06,0.06 0 0 0 0.06,0 v 0 V 12 11.89 a 0.45,0.45 0 0 1 0.22,-0.25 0.64,0.64 0 0 0 0.26,-0.17 z"
     id="path38" />
  <polygon
     class="cls-2"
     points=""
     id="polygon38" />
  <path
     class="cls-2"
     d="m 27.415012,10.83 a 0.07,0.07 0 0 0 -0.09,0 4.84,4.84 0 0 1 -0.36,0.72 0.62,0.62 0 0 1 -0.53,0.29 h -0.18 a 0.25,0.25 0 0 0 -0.23,0.16 v 0 0.07 a 0.05,0.05 0 0 0 0.05,0.08 h 0.1 a 0.07,0.07 0 0 0 0.07,0 v 0 a 0.21,0.21 0 0 1 0.28,-0.12 v 0 a 0.06,0.06 0 0 0 0.06,0.08 h 0.41 0.09 0.06 a 0.12,0.12 0 0 1 0.14,0 0.24,0.24 0 0 0 0.11,0.06 v 0 a 0.27,0.27 0 0 0 0.13,0 h 0.1 v -0.15 a 0.18,0.18 0 0 0 -0.16,-0.13 h -0.14 a 0.06,0.06 0 0 1 0,-0.09 l 0.08,-0.11 c 0.08,-0.11 0.16,-0.23 0.23,-0.35 l 0.08,-0.15 a 0.19,0.19 0 0 0 -0.07,-0.26 z"
     id="path39" />
  <path
     class="cls-2"
     d="m 27.715012,3.83 a 0.79,0.79 0 0 1 0.19,0.26 0.43,0.43 0 0 0 0.27,0.2 1.56,1.56 0 0 1 0.53,0.27 v 0 0 a 1.62,1.62 0 0 0 -0.28,-0.9 0.22,0.22 0 0 0 -0.13,-0.08 v 0 a 0.9,0.9 0 0 0 -0.59,0.24 z"
     id="path40" />
  <path
     class="cls-2"
     d="m 28.055012,4.6 c 0,0 0,0 0,0 a 1,1 0 0 1 -0.11,0.38 0.3,0.3 0 0 0 0,0.29 1.4,1.4 0 0 1 0.09,0.56 v 0 a 1.56,1.56 0 0 0 0.59,-0.63 0.37,0.37 0 0 0 0,-0.25 0.36,0.36 0 0 0 -0.08,-0.12 1.06,1.06 0 0 0 -0.44,-0.21 z"
     id="path41" />
  <path
     class="cls-2"
     d="m 26.545012,3.73 v 0 a 0.88,0.88 0 0 1 0.47,-0.13 h 0.2 0.07 a 0.35,0.35 0 0 0 0.26,-0.05 1.24,1.24 0 0 1 0.5,-0.25 c 0,0 0,0 0,0 a 1.57,1.57 0 0 0 -0.45,-0.22 h -0.18 -0.17 a 0.85,0.85 0 0 0 -0.43,0.22 1.17,1.17 0 0 0 -0.29,0.44 c 0,0 0,0 0,0 z"
     id="path42" />
  <path
     class="cls-2"
     d="m 25.385012,3.42 a 2.13,2.13 0 0 1 0.18,0.52 2.21,2.21 0 0 1 0,0.58 v 0 0 a 0.75,0.75 0 0 1 0.42,0 v 0 0 a 2.21,2.21 0 0 1 0,-0.58 1.53,1.53 0 0 1 0.18,-0.52 2.39,2.39 0 0 1 0.13,-0.21 c 0,0 0,0 0,0 v 0 0 a 1.55,1.55 0 0 0 -0.45,0.36 0.13,0.13 0 0 1 -0.22,0 1.55,1.55 0 0 0 -0.45,-0.36 v 0 0 c 0,0 0,0 0,0 a 2.39,2.39 0 0 1 0.21,0.21 z"
     id="path43" />
  <path
     class="cls-2"
     d="m 24.165012,3.55 a 0.35,0.35 0 0 0 0.22,0.08 h 0.07 0.2 a 0.88,0.88 0 0 1 0.47,0.13 v 0 0 c 0,0 0,0 0,0 a 1.17,1.17 0 0 0 -0.29,-0.44 0.85,0.85 0 0 0 -0.43,-0.22 h -0.17 -0.18 a 1.45,1.45 0 0 0 -0.45,0.22 c 0,0 0,0 0,0 a 1.31,1.31 0 0 1 0.56,0.23 z"
     id="path44" />
  <path
     class="cls-2"
     d="m 23.805012,4.12 a 1,1 0 0 1 0.2,-0.26 v 0 a 0.9,0.9 0 0 0 -0.59,-0.24 h -0.05 a 0.22,0.22 0 0 0 -0.13,0.08 1.55,1.55 0 0 0 -0.28,0.9 v 0 0 a 1.47,1.47 0 0 1 0.53,-0.27 0.38,0.38 0 0 0 0.32,-0.21 z"
     id="path45" />
  <path
     class="cls-2"
     d="m 23.735012,5.91 v 0 a 1.4,1.4 0 0 1 0.09,-0.56 0.33,0.33 0 0 0 0,-0.29 1.29,1.29 0 0 1 -0.12,-0.38 c 0,0 0,0 0,0 v 0 a 1,1 0 0 0 -0.45,0.21 0.35,0.35 0 0 0 -0.12,0.21 0.33,0.33 0 0 0 0,0.24 1.52,1.52 0 0 0 0.59,0.64 z"
     id="path46" />
  <path
     class="cls-2"
     d="m 27.745012,9.94 v 0 a 5,5 0 0 1 -0.87,-1.46 4.9,4.9 0 0 1 -0.33,-1.73 2.53,2.53 0 0 1 0,-0.28 v 0 0 a 0.08,0.08 0 0 1 -0.08,-0.09 0.21,0.21 0 0 1 0.21,-0.21 h 0.51 0.24 a 0.29,0.29 0 0 0 0.24,-0.25 1,1 0 0 0 -0.08,-0.47 v 0 a 0.93,0.93 0 0 1 -0.46,0.12 0.9,0.9 0 0 1 -0.4,-0.09 v 0 a 1.18,1.18 0 0 1 -0.07,0.2 l -0.45,0.95 a 0.27,0.27 0 0 1 -0.48,0 l -0.45,-0.95 a 1.18,1.18 0 0 1 -0.07,-0.2 v 0 a 0.9,0.9 0 0 1 -0.4,0.09 0.93,0.93 0 0 1 -0.46,-0.12 v 0 a 1,1 0 0 0 -0.08,0.47 0.29,0.29 0 0 0 0.24,0.25 h 0.24 0.51 a 0.21,0.21 0 0 1 0.21,0.21 0.08,0.08 0 0 1 -0.08,0.09 h -0.84 -0.3 v 0 a 0.09,0.09 0 0 0 -0.09,0.09 2,2 0 0 0 0,0.25 4.6,4.6 0 0 0 0.71,2.45 4.71,4.71 0 0 0 1.68,1.51 v 0 0 a 0.3,0.3 0 0 0 0,-0.1 0.55,0.55 0 0 0 0,-0.31 0.61,0.61 0 0 0 -0.14,-0.29 4.77,4.77 0 0 1 -0.58,-0.76 0.15,0.15 0 0 1 0,-0.07 0.1,0.1 0 0 1 0,-0.05 0.23,0.23 0 0 1 0.11,0 0.19,0.19 0 0 1 0.18,0.1 4.64,4.64 0 0 0 0.76,0.89 4.12,4.12 0 0 0 0.4,0.33 3.17,3.17 0 0 0 0.36,0.23 c 0,0 0,0 0,0 v 0 l 0.06,-0.17 a 0.62,0.62 0 0 0 0,-0.3 0.59,0.59 0 0 0 -0.14,-0.27 z"
     id="path47" />
  <path
     class="cls-2"
     d="m 28.255012,10.44 v 0 a 4.27,4.27 0 0 1 -0.27,0.67 v 0 0 a 8.26,8.26 0 0 0 0.94,0.36 v 0 a 0.06,0.06 0 0 0 0.06,0 1.76,1.76 0 0 0 0.14,-0.23 v -0.09 a 0.11,0.11 0 0 0 0,-0.15 4.72,4.72 0 0 1 -0.87,-0.56 z"
     id="path48" />
  <path
     class="cls-2"
     d="m 30.445012,11.03 a 0.76,0.76 0 0 0 -0.46,-0.54 3.27,3.27 0 0 1 -0.65,-0.32 4.19,4.19 0 0 1 -0.93,-0.8 3.79,3.79 0 0 1 -0.77,-1.35 0.06,0.06 0 0 1 0,-0.06 h 0.07 a 0.23,0.23 0 0 1 0.21,0.14 3.9,3.9 0 0 0 0.66,1.13 3.84,3.84 0 0 0 0.87,0.73 3.45,3.45 0 0 0 0.75,0.36 v 0 c 0,-0.07 0,-0.13 0,-0.2 v 0 a 0.73,0.73 0 0 0 -0.37,-0.53 3.39,3.39 0 0 1 -0.83,-0.68 3.18,3.18 0 0 1 -0.68,-1.33 0.17,0.17 0 0 1 0,-0.07 v 0 a 0.24,0.24 0 0 1 0.22,0.16 2.35,2.35 0 0 0 0.23,0.57 2.3,2.3 0 0 0 0.35,0.51 2.73,2.73 0 0 0 0.77,0.63 h 0.05 a 12.72,12.72 0 0 0 -0.43,-1.65 3.16,3.16 0 0 0 -0.46,-0.87 2.7,2.7 0 0 0 -0.68,-0.67 h -0.09 a 0.17,0.17 0 0 0 -0.1,0 2,2 0 0 1 -0.55,0.3 1.84,1.84 0 0 1 -0.62,0.11 h -0.22 a 0.1,0.1 0 0 0 -0.1,0.09 v 0.22 a 4.5,4.5 0 0 0 1.11,3 4.54,4.54 0 0 0 1.11,0.94 4.77,4.77 0 0 0 1.35,0.54 v 0 0 a 0.83,0.83 0 0 1 0.19,-0.36 z"
     id="path49" />
  <path
     class="cls-2"
     d="m 27.095012,10.83 c 0,0 0,-0.08 0,-0.12 l -0.18,-0.14 c 0,0 0,0 -0.06,0 -0.06,0 0,0.09 0,0.14 a 0,0 0 0 0 0,0.05 l 0.19,0.11 z"
     id="path50" />
  <path
     class="cls-2"
     d="m 27.075012,3.88 a 0.67,0.67 0 1 0 0.67,0.67 0.67,0.67 0 0 0 -0.67,-0.67 z m 0,1.13 a 0.48,0.48 0 0 1 -0.45,-0.45 0.46,0.46 0 0 1 0.3,-0.44 c 0,0 0.07,0 0,0.05 a 0.36,0.36 0 0 0 -0.08,0.25 0.35,0.35 0 0 0 0.33,0.33 0.32,0.32 0 0 0 0.24,-0.08 0,0 0 0 0 0.06,0 0.47,0.47 0 0 1 -0.41,0.34 z"
     id="path51" />
  <path
     class="cls-2"
     d="m 24.655012,3.88 a 0.67,0.67 0 1 0 0.67,0.67 0.67,0.67 0 0 0 -0.67,-0.67 z m 0,1.13 a 0.46,0.46 0 0 1 -0.45,-0.45 0.44,0.44 0 0 1 0.3,-0.44 0,0 0 0 0 0,0.05 0.32,0.32 0 0 0 -0.08,0.25 0.34,0.34 0 0 0 0.33,0.33 0.33,0.33 0 0 0 0.24,-0.08 0,0 0 0 0 0.06,0 0.47,0.47 0 0 1 -0.41,0.34 z"
     id="path52" />
  <path
     class="cls-2"
     d="M 18.005012,14 6.3350122,25.67 a 18,18 0 0 0 1.14,1.87 c 0.13,0.2 0.27,0.39 0.41,0.58 L 18.005012,18 l 10.12,10.12 0.41,-0.58 c 0.41,-0.6 0.79,-1.23 1.14,-1.87 z"
     id="path53" />
  <path
     class="cls-2"
     d="M 18.005012,8 4.6150122,21.39 a 20.63,20.63 0 0 0 1.06,2.94 L 18.005012,12 l 12.33,12.33 a 19,19 0 0 0 1.05,-2.94 z"
     id="path54" />
  <metadata
     id="metadata54">
    <rdf:RDF>
      <cc:Work
         rdf:about="">
        <dc:title>Rice_Shield_Warm_Gray_5</dc:title>
      </cc:Work>
    </rdf:RDF>
  </metadata>
</svg>
